<?xml version="1.0" encoding="UTF-8" standalone="no"?>
<svg
   version="1.1"
   width="400"
   height="400"
   viewBox="0 0 400 400"
   xmlns="http://www.w3.org/2000/svg">

  <!-- 400px diameter yellow circle -->
  <circle
     cx="200"
     cy="200"
     r="200"
     fill="#f8ec47" />

  <!-- shift artwork into the centre -->
  <g transform="translate(-55,-50)">
    <path
      style="fill:#090b08"
      d="m 239.5,396.60376 c -37.86852,-6.29164 -75.86895,-29.04157 -95.4547,-57.14639 -2.51584,-3.61013 -0.6413,-2.02392 6.89764,5.8367 68.94692,71.88888 184.36557,54.63326 229.02838,-34.24078 C 386.75763,297.54929 393,275.49702 393,265.02721 v -3.75185 l 5.41492,-0.63641 c 2.9782,-0.35003 6.1282,-0.91014 7,-1.24467 3.72458,-1.42926 0.53538,21.90823 -5.44006,39.80862 C 378.0523,364.87538 307.23586,407.8577 239.5,396.60376 Z M 311,344.45528 c 0,-0.34985 4.28019,-8.64137 9.51153,-18.42559 l 9.51153,-17.78949 -9.49361,-17.13511 c -5.22149,-9.42431 -10.18824,-18.47836 -11.03721,-20.1201 L 307.94864,268 l 6.77568,0.0112 6.77568,0.0112 7.5,13.99542 7.5,13.99543 6.9838,-14.00665 L 350.4676,268 h 6.64718 6.64717 l -7.07036,13.75 c -3.8887,7.5625 -12.80222,24.775 -19.80782,38.25 l -12.73746,24.5 -6.57316,0.29569 C 313.95792,344.95832 311,344.80514 311,344.45528 Z M 128.34914,310.23136 C 125.55067,304.32911 119.84706,292.4125 115.67445,283.75 l -7.58657,-15.75 6.70606,0.0291 6.70606,0.0291 5.89767,12.97094 c 3.24373,7.13402 6.16873,12.96956 6.5,12.96788 0.33128,-0.002 2.5978,-5.85169 5.0367,-13 L 143.36874,268 h 6.71893 6.71894 l -11.01345,25.75 c -6.0574,14.1625 -11.3155,26.07911 -11.68467,26.48136 -0.36917,0.40225 -2.96087,-4.09775 -5.75935,-10 z M 172.5,317.17588 c -20.95437,-9.89903 -18.47193,-44.90489 3.55922,-50.19009 6.37732,-1.52989 11.91103,-0.51436 16.90335,3.10206 L 197,273.01254 v -2.50627 C 197,268.10972 197.26266,268 203,268 h 6 v 25 25 h -6 c -5.74236,0 -6,-0.10796 -6,-2.51419 v -2.51419 l -4.11657,2.72422 c -5.43576,3.59721 -14.50745,4.25591 -20.38343,1.48004 z m 20.62759,-12.79812 c 10.22718,-9.79826 2.6846,-28.63113 -10.85557,-27.10495 -9.83963,1.10907 -14.94809,11.99857 -10.65828,22.71985 3.59081,8.97432 14.41986,11.18158 21.51385,4.3851 z m 82.62038,13.19549 C 254.102,309.84857 254.9061,273.73449 276.8662,267.35052 293.61008,262.48294 308,273.7182 308,291.65893 V 296 h -17.93019 -17.9302 l 0.91135,3.25 c 2.72913,9.73245 14.16996,12.00821 21.56557,4.28972 l 4.2737,-4.46028 4.55489,2.54578 c 5.71525,3.19431 5.6906,3.54597 -0.69512,9.91729 -7.28548,7.26905 -17.27814,9.50085 -27.00203,6.03074 z m 18.84365,-34.39608 c -4.16694,-8.05796 -15.96765,-8.15204 -20.10037,-0.16024 L 272.94864,286 H 284.5 296.05136 Z M 218,218.5 c 0,-54.725 -0.21473,-99.5 -0.47717,-99.5 -1.37768,0 -13.98226,5.20196 -20.52283,8.46986 -26.93533,13.45782 -50.13302,37.36776 -63.14722,65.08602 l -4.19941,8.94412 -3.38565,-7.447 c -3.97063,-8.73373 -3.94114,-8.9491 2.74986,-20.08337 21.14684,-35.18972 62.08388,-65.04646 96.73242,-70.55016 L 230,102.74438 V 210.37219 318 h -6 -6 z m 23,-8.89301 c 0,-97.91776 0.15287,-108.45167 1.58179,-109 3.0204,-1.159037 26.9711,-0.58704 36.41821,0.86974 48.40822,7.46476 90.51052,37.66656 111.87261,80.25107 4.9603,9.88818 4.92073,8.87944 0.37739,9.62064 -2.0625,0.33647 -4.94196,0.88948 -6.39879,1.2289 -2.48243,0.57836 -2.92035,0.0952 -6.97252,-7.69362 C 356.5445,143.8767 312.31236,115.77665 265.25,113.3323 L 253,112.69605 V 215.34802 318 h -6 -6 z M 95.044538,239.25 C 90.470606,230.0375 84.322221,217.41794 81.381461,211.20654 l -5.346836,-11.29346 7.072423,0.29346 7.072423,0.29346 6.576007,14.29166 6.576012,14.29165 6.93832,-16.29165 c 3.81608,-8.96041 7.229,-16.60191 7.58426,-16.98111 0.35526,-0.3792 3.78,6.7083 7.61052,15.75 3.83053,9.0417 7.23973,16.43945 7.576,16.43945 0.33627,0 3.45208,-6.3 6.92402,-14 l 6.31263,-14 h 6.86138 c 3.77376,0 6.86138,0.16077 6.86138,0.35728 0,0.80364 -27.21784,55.75475 -27.47047,55.46114 -0.15069,-0.17513 -3.32733,-7.40592 -7.0592,-16.06842 -3.73188,-8.6625 -7.05188,-15.74482 -7.37778,-15.7385 -0.3259,0.006 -3.71678,7.20633 -7.53529,16 -3.81851,8.79368 -6.99984,15.9885 -7.06961,15.9885 -0.0698,0 -3.869181,-7.5375 -8.443112,-16.75 z M 386.5,251.39622 c -19.69982,-10.69997 -19.72477,-41.86333 -0.0409,-51.02935 8.07019,-3.75797 18.47834,-2.35339 24.77289,3.3431 C 412.91761,205.23541 413,204.27748 413,183.15499 V 161 h 6 6 v 45.5 45.5 h -6 c -5.74236,0 -6,-0.10796 -6,-2.51419 v -2.51419 l -4.17688,2.76419 c -5.2543,3.47721 -17.32518,4.37505 -22.32312,1.66041 z M 406.19088,240.25 c 6.31071,-3.6819 8.91448,-15.61504 5.05757,-23.17892 -7.29773,-14.31173 -26.78545,-7.79588 -26.68055,8.92083 0.0795,12.67643 11.46556,20.18431 21.62298,14.25809 z m -228.58185,10.51397 c -16.94401,-4.48241 -22.19924,-31.4557 -8.74811,-44.90105 C 184.08045,190.64995 209,201.51641 209,223.36602 V 228 h -17.5 c -19.50789,0 -19.59909,0.0401 -15.98307,7.03273 3.84288,7.43131 13.57389,8.1396 20.24027,1.47323 l 4.49404,-4.49404 4.86787,2.64942 c 5.46999,2.97714 5.52334,2.62959 -1.55384,10.12125 -6.10994,6.46777 -15.73409,8.68557 -25.95624,5.98138 z M 197,218.45034 c 0,-7.68096 -14.31462,-11.2736 -19.74844,-4.95641 C 172.99235,218.44556 173.87328,219 186,219 c 6.05,0 11,-0.24735 11,-0.54966 z m 79.88507,32.17004 C 256.39401,243.29768 254.53093,211.6873 274,201.67016 c 7.00297,-3.60313 14.90094,-3.32503 21.0452,0.74106 4.80956,3.18281 4.9548,3.18541 4.9548,0.0888 0,-2.36364 0.3,-2.5 5.5,-2.5 h 5.5 v 25.5 25.5 h -5.5 c -5.2,0 -5.5,-0.13636 -5.5,-2.5 0,-2.58517 -1.36883,-3.33027 -2.56435,-1.39587 -2.46691,3.99153 -13.7962,5.93 -20.55058,3.51625 z m 16.69497,-11.50606 c 11.84312,-7.22192 6.67333,-29.09725 -6.8797,-29.11058 -8.68641,-0.009 -13.69053,5.6904 -13.6966,15.59838 -0.008,12.49909 10.70322,19.53279 20.5763,13.5122 z m 27.86993,10.61591 c -0.26799,-0.69838 -0.36637,-12.06088 -0.21861,-25.25 L 321.5,200.5 l 5.75,-0.2999 c 5.22753,-0.27266 5.75,-0.11364 5.75,1.75 0,2.50146 -0.48705,2.54229 5.41948,-0.45429 9.22531,-4.6803 19.77037,-2.02511 24.00307,6.04386 C 364.3194,211.15571 364.5,213.19523 364.5,231 v 19.5 l -5.75,0.2999 -5.75,0.29991 v -16.40068 c 0,-21.93596 -1.10041,-24.73887 -9.68426,-24.66733 -8.00411,0.0667 -9.37446,3.43139 -10.06712,24.7182 L 332.71985,251 h -5.39131 c -3.43533,0 -5.56809,-0.46068 -5.87857,-1.26977 z"
      id="path12" />
  </g>
</svg>
