<?xml version="1.0" encoding="utf-8"?>
<!DOCTYPE svg PUBLIC "-//W3C//DTD SVG 20010904//EN" "http://www.w3.org/TR/2001/REC-SVG-20010904/DTD/svg10.dtd">
<svg version="1.0" width="192.75pt" height="192.75pt" viewBox="0 0 192.75 192.75" preserveAspectRatio="xMidYMid meet" xmlns="http://www.w3.org/2000/svg">
  <g transform="translate(0,192.75)scale(.075,.075)">
    <path id="path1" d="M 1590 -2067 l -495 122 -3 526 -2 527 -305 76 c -168 42 -316 76 -330 76 -63 0 -115 -59 -115 -132 0 -49 43 -131 84 -163 27 -21 82 -39 233 -77 109 -27 215 -53 236 -59 l 37 -10 -2 -172 -3 -171 -205 -133 c -113 -73 -214 -133 -225 -133 -19 0 -444 105 -450 112 -2 2 91 63 206 137 l 209 134 -67 33 c -232 114 -386 372 -370 618 7 109 36 182 100 253 66 72 134 103 237 110 70 5 104 -2 523 -106 247 -61 466 -115 488 -121 l 39 -11 0 -524 0 -524 38 -10 c 252 -67 575 -143 604 -143 131 1 153 192 33 289 -27 22 -81 40 -267 88 l -233 60 -3 172 c -2 169 -2 172 20 188 13 9 108 70 211 136 l 189 121 233 -58 234 -58 -72 -47 c -40 -26 -134 -88 -211 -137 l -139 -90 64 -30 c 185 -90 324 -274 365 -486 52 -263 -94 -481 -335 -501 -48 -4 -129 13 -551 118 z " />
  </g>
</svg>