<?xml version="1.0" encoding="UTF-8"?>
<svg id="Layer_1" xmlns="http://www.w3.org/2000/svg" version="1.1" viewBox="0 0 257 257">
  <!-- Generator: Adobe Illustrator 30.2.1, SVG Export Plug-In . SVG Version: 2.1.1 Build 1)  -->
  <defs>
    <style>
      .st0 {
        fill: #333;
      }
    </style>
  </defs>
  <path class="st0" d="M160.73,154.37c-.38-.2-.61-.75-1.07-.86-.49-.59-1.16-.94-2.04-1.67l-.14-34.27,44.4-11.3c9.4-2.39,15.13-12.34,14.58-21.55-.9-7.51-6.74-12.11-14.15-10.94l-60.85,15.19.04,105.06-94.24,23.39c-10.77,2.67-20.81-.03-29.94-5.16-7.53-6.41-13.03-14.63-14.76-24.75-4.02-23.52,7.54-47.3,25.91-61.63,4.51-3.52,9.18-6.16,14.24-8.14.91-.36,1.85-.66,3.04-1.38l-35.85-23.07c-2.03-1.3-4.18-2.38-6.38-4.27l41.78-10.69,5.14-1.01,42.69,27.42v34.33s-44.58,11.13-44.58,11.13c-8.96,3.23-15.07,12.14-14.3,21.63.39,4.77,3.22,8.87,7.37,10.2,2.02.9,4.31,1.35,6.9.71l60.59-15.12-.08-47.21.09-57.89,94.47-23.41c8.85-2.19,17.92-.79,25.78,3.27,9.21,4.76,15.27,13.26,17.92,23.27,7.88,29.71-13.33,64.65-42.5,74.44l42.5,27.44-46.91,11.76c-2.13-1.02-3.43-2.54-5.51-3.2-2.67-2.14-5.5-3.76-8.43-5.61-8.68-5.49-16.86-11.42-25.7-16.12Z"/>
</svg>