<svg xmlns="http://www.w3.org/2000/svg"
     viewBox="0 0 192.75 192.75"
     width="192.75"
     height="192.75"
     fill="#333">
    <path d="M122.696 33.816l-37.125 9.150-0.225 39.450-0.150 39.525-22.875 5.700c-12.600 3.150-23.700 5.700-24.750 5.700-4.725 0.000-8.625-4.425-8.625-9.900 0.000-3.675 3.225-9.825 6.300-12.225 2.025-1.575 6.150-2.925 17.475-5.775 8.175-2.025 16.125-3.975 17.700-4.425l2.775-0.750-0.150-12.900-0.225-12.825-15.375-9.975c-8.475-5.475-16.050-9.975-16.875-9.975-1.425 0.000-33.300 7.875-33.750 8.400-0.150 0.150 6.825 4.725 15.450 10.275l15.675 10.050-5.025 2.475c-17.400 8.550-28.950 27.900-27.750 46.350 0.525 8.175 2.700 13.650 7.500 18.975 4.950 5.400 10.050 7.725 17.775 8.250 5.250 0.375 7.800-0.150 39.225-7.950 18.525-4.575 34.950-8.625 36.600-9.075l2.925-0.825v-39.300-39.300l2.850-0.750c18.900-5.025 43.125-10.725 45.300-10.725 9.825 0.075 11.475 14.400 2.475 21.600-2.025 1.650-6.075 3.000-20.025 6.600l-17.475 4.500-0.225 12.900c-0.150 12.675-0.150 12.900 1.500 14.100 0.975 0.675 8.100 5.250 15.825 10.200l14.175 9.075 17.475-4.350 17.550-4.350-5.400-3.525c-3.000-1.950-10.050-6.600-15.825-10.275l-10.425-6.750 4.800-2.250c13.875-6.750 24.300-20.550 27.300-36.450 3.900-19.725-7.050-36.075-25.125-37.575-3.600-0.300-9.675 0.975-41.325 8.850z"/>
</svg>
