<?xml version="1.0" encoding="utf-8"?>
<!DOCTYPE svg PUBLIC "-//W3C//DTD SVG 20010904//EN" "http://www.w3.org/TR/2001/REC-SVG-20010904/DTD/svg10.dtd">
<svg version="1.0" width="192pt" height="192pt" viewBox="0 0 192 192" preserveAspectRatio="xMidYMid meet" xmlns="http://www.w3.org/2000/svg">
  <g transform="translate(0,192)scale(.075,.075)">
    <path id="path1" d="M 2005 -2123 c -41 9 -831 204 -867 214 l -38 10 0 494 0 494 -38 10 c -20 6 -156 40 -300 76 -244 61 -267 65 -300 53 -89 -32 -96 -165 -14 -251 40 -42 47 -45 276 -102 l 211 -52 0 -164 0 -164 -108 -70 c -59 -39 -148 -96 -197 -128 l -90 -58 -207 52 c -115 29 -212 55 -216 59 -4 4 32 32 80 62 48 31 137 87 196 126 l 109 70 -56 25 c -156 72 -295 240 -341 414 -20 76 -21 208 -1 275 8 29 36 82 61 116 53 73 112 106 221 125 64 11 65 11 539 -107 l 475 -118 2 -496 3 -496 295 -73 c 260 -65 299 -73 331 -63 93 26 104 164 21 251 -35 37 -45 41 -232 90 -107 27 -212 55 -232 60 l -38 10 0 88 c 0 48 3 122 6 164 l 7 77 99 63 c 55 34 144 90 198 124 l 98 61 173 -43 c 96 -24 194 -49 218 -55 l 44 -12 -124 -80 c -68 -44 -157 -101 -197 -127 l -73 -48 68 -34 c 131 -66 265 -222 315 -367 19 -55 23 -87 23 -182 0 -104 -3 -121 -28 -174 -41 -88 -119 -160 -202 -185 -63 -20 -124 -25 -170 -14 z " />
  </g>
</svg>